<mxfile host="Electron" agent="Mozilla/5.0 (Windows NT 10.0; Win64; x64) AppleWebKit/537.36 (KHTML, like Gecko) draw.io/26.0.16 Chrome/132.0.6834.196 Electron/34.2.0 Safari/537.36" version="26.0.16">
  <diagram name="Page-1" id="1pkZsyY3tJbZk6OsRRRO">
    <mxGraphModel dx="2450" dy="953" grid="1" gridSize="10" guides="1" tooltips="1" connect="1" arrows="1" fold="1" page="1" pageScale="1" pageWidth="850" pageHeight="1100" math="0" shadow="0">
      <root>
        <mxCell id="0" />
        <mxCell id="1" parent="0" />
        <mxCell id="_byEJqEuBEvWaC3ETk2K-18" value="" style="edgeStyle=orthogonalEdgeStyle;rounded=0;orthogonalLoop=1;jettySize=auto;html=1;" edge="1" parent="1" source="_byEJqEuBEvWaC3ETk2K-16" target="_byEJqEuBEvWaC3ETk2K-17">
          <mxGeometry relative="1" as="geometry" />
        </mxCell>
        <mxCell id="_byEJqEuBEvWaC3ETk2K-16" value="PostgreSQL" style="rounded=1;whiteSpace=wrap;html=1;" vertex="1" parent="1">
          <mxGeometry x="-120" y="620" width="120" height="60" as="geometry" />
        </mxCell>
        <mxCell id="_byEJqEuBEvWaC3ETk2K-20" value="" style="edgeStyle=orthogonalEdgeStyle;rounded=0;orthogonalLoop=1;jettySize=auto;html=1;" edge="1" parent="1" source="_byEJqEuBEvWaC3ETk2K-17" target="_byEJqEuBEvWaC3ETk2K-19">
          <mxGeometry relative="1" as="geometry" />
        </mxCell>
        <mxCell id="_byEJqEuBEvWaC3ETk2K-17" value="Debezium&lt;div&gt;Kafka Connect&lt;/div&gt;" style="rounded=1;whiteSpace=wrap;html=1;" vertex="1" parent="1">
          <mxGeometry x="80" y="620" width="120" height="60" as="geometry" />
        </mxCell>
        <mxCell id="_byEJqEuBEvWaC3ETk2K-22" value="" style="edgeStyle=orthogonalEdgeStyle;rounded=0;orthogonalLoop=1;jettySize=auto;html=1;" edge="1" parent="1" source="_byEJqEuBEvWaC3ETk2K-19" target="_byEJqEuBEvWaC3ETk2K-21">
          <mxGeometry relative="1" as="geometry" />
        </mxCell>
        <mxCell id="_byEJqEuBEvWaC3ETk2K-19" value="Kafka" style="rounded=1;whiteSpace=wrap;html=1;" vertex="1" parent="1">
          <mxGeometry x="280" y="620" width="120" height="60" as="geometry" />
        </mxCell>
        <mxCell id="_byEJqEuBEvWaC3ETk2K-24" value="" style="edgeStyle=orthogonalEdgeStyle;rounded=0;orthogonalLoop=1;jettySize=auto;html=1;" edge="1" parent="1" source="_byEJqEuBEvWaC3ETk2K-21" target="_byEJqEuBEvWaC3ETk2K-23">
          <mxGeometry relative="1" as="geometry" />
        </mxCell>
        <mxCell id="_byEJqEuBEvWaC3ETk2K-54" style="edgeStyle=orthogonalEdgeStyle;rounded=0;orthogonalLoop=1;jettySize=auto;html=1;exitX=0.5;exitY=0;exitDx=0;exitDy=0;entryX=0.75;entryY=1;entryDx=0;entryDy=0;" edge="1" parent="1" source="_byEJqEuBEvWaC3ETk2K-21" target="_byEJqEuBEvWaC3ETk2K-51">
          <mxGeometry relative="1" as="geometry" />
        </mxCell>
        <mxCell id="_byEJqEuBEvWaC3ETk2K-21" value="Apache Spark" style="rounded=1;whiteSpace=wrap;html=1;" vertex="1" parent="1">
          <mxGeometry x="480" y="620" width="120" height="60" as="geometry" />
        </mxCell>
        <mxCell id="_byEJqEuBEvWaC3ETk2K-31" style="edgeStyle=orthogonalEdgeStyle;rounded=0;orthogonalLoop=1;jettySize=auto;html=1;entryX=0.5;entryY=0;entryDx=0;entryDy=0;" edge="1" parent="1" source="_byEJqEuBEvWaC3ETk2K-23" target="_byEJqEuBEvWaC3ETk2K-32">
          <mxGeometry relative="1" as="geometry">
            <mxPoint x="940" y="790" as="targetPoint" />
            <Array as="points">
              <mxPoint x="940" y="650" />
            </Array>
          </mxGeometry>
        </mxCell>
        <mxCell id="_byEJqEuBEvWaC3ETk2K-72" style="edgeStyle=orthogonalEdgeStyle;rounded=0;orthogonalLoop=1;jettySize=auto;html=1;entryX=1;entryY=0.5;entryDx=0;entryDy=0;" edge="1" parent="1" source="_byEJqEuBEvWaC3ETk2K-23" target="_byEJqEuBEvWaC3ETk2K-6">
          <mxGeometry relative="1" as="geometry">
            <Array as="points">
              <mxPoint x="830" y="580" />
              <mxPoint x="1070" y="580" />
              <mxPoint x="1070" y="320" />
            </Array>
          </mxGeometry>
        </mxCell>
        <mxCell id="_byEJqEuBEvWaC3ETk2K-73" style="edgeStyle=orthogonalEdgeStyle;rounded=0;orthogonalLoop=1;jettySize=auto;html=1;entryX=1;entryY=0.5;entryDx=0;entryDy=0;" edge="1" parent="1" source="_byEJqEuBEvWaC3ETk2K-23" target="_byEJqEuBEvWaC3ETk2K-33">
          <mxGeometry relative="1" as="geometry">
            <Array as="points">
              <mxPoint x="830" y="760" />
              <mxPoint x="495" y="760" />
              <mxPoint x="495" y="875" />
            </Array>
          </mxGeometry>
        </mxCell>
        <mxCell id="_byEJqEuBEvWaC3ETk2K-23" value="MinIO" style="rounded=1;whiteSpace=wrap;html=1;" vertex="1" parent="1">
          <mxGeometry x="770" y="620" width="120" height="60" as="geometry" />
        </mxCell>
        <mxCell id="_byEJqEuBEvWaC3ETk2K-30" style="edgeStyle=orthogonalEdgeStyle;rounded=0;orthogonalLoop=1;jettySize=auto;html=1;exitX=0;exitY=1;exitDx=0;exitDy=0;entryX=0.5;entryY=0;entryDx=0;entryDy=0;" edge="1" parent="1" source="_byEJqEuBEvWaC3ETk2K-25" target="_byEJqEuBEvWaC3ETk2K-29">
          <mxGeometry relative="1" as="geometry">
            <Array as="points">
              <mxPoint x="680" y="650" />
              <mxPoint x="680" y="715" />
              <mxPoint x="60" y="715" />
            </Array>
          </mxGeometry>
        </mxCell>
        <mxCell id="_byEJqEuBEvWaC3ETk2K-25" value="CRON 1 HOUR" style="text;html=1;align=center;verticalAlign=middle;whiteSpace=wrap;rounded=0;" vertex="1" parent="1">
          <mxGeometry x="600" y="620" width="170" height="30" as="geometry" />
        </mxCell>
        <mxCell id="_byEJqEuBEvWaC3ETk2K-29" value="Propose 1 Staging" style="swimlane;whiteSpace=wrap;html=1;" vertex="1" parent="1">
          <mxGeometry x="-120" y="780" width="360" height="430" as="geometry">
            <mxRectangle x="-120" y="780" width="140" height="30" as="alternateBounds" />
          </mxGeometry>
        </mxCell>
        <mxCell id="_byEJqEuBEvWaC3ETk2K-33" value="" style="swimlane;startSize=0;" vertex="1" parent="_byEJqEuBEvWaC3ETk2K-29">
          <mxGeometry x="30" y="50" width="310" height="90" as="geometry" />
        </mxCell>
        <mxCell id="_byEJqEuBEvWaC3ETk2K-34" value="batch/hour" style="whiteSpace=wrap;html=1;aspect=fixed;" vertex="1" parent="_byEJqEuBEvWaC3ETk2K-33">
          <mxGeometry x="20" y="15" width="60" height="60" as="geometry" />
        </mxCell>
        <mxCell id="_byEJqEuBEvWaC3ETk2K-35" value="batch/hour" style="whiteSpace=wrap;html=1;aspect=fixed;" vertex="1" parent="_byEJqEuBEvWaC3ETk2K-33">
          <mxGeometry x="90" y="15" width="60" height="60" as="geometry" />
        </mxCell>
        <mxCell id="_byEJqEuBEvWaC3ETk2K-36" value="batch/hour" style="whiteSpace=wrap;html=1;aspect=fixed;" vertex="1" parent="_byEJqEuBEvWaC3ETk2K-33">
          <mxGeometry x="160" y="15" width="60" height="60" as="geometry" />
        </mxCell>
        <mxCell id="_byEJqEuBEvWaC3ETk2K-37" value="batch/hour" style="whiteSpace=wrap;html=1;aspect=fixed;" vertex="1" parent="_byEJqEuBEvWaC3ETk2K-33">
          <mxGeometry x="230" y="15" width="60" height="60" as="geometry" />
        </mxCell>
        <mxCell id="_byEJqEuBEvWaC3ETk2K-41" style="edgeStyle=orthogonalEdgeStyle;rounded=0;orthogonalLoop=1;jettySize=auto;html=1;entryX=0.5;entryY=1;entryDx=0;entryDy=0;" edge="1" parent="_byEJqEuBEvWaC3ETk2K-29" source="_byEJqEuBEvWaC3ETk2K-38" target="_byEJqEuBEvWaC3ETk2K-40">
          <mxGeometry relative="1" as="geometry">
            <Array as="points">
              <mxPoint x="205" y="300" />
              <mxPoint x="185" y="300" />
            </Array>
          </mxGeometry>
        </mxCell>
        <mxCell id="_byEJqEuBEvWaC3ETk2K-38" value="Update" style="rounded=0;whiteSpace=wrap;html=1;" vertex="1" parent="_byEJqEuBEvWaC3ETk2K-29">
          <mxGeometry x="165" y="330" width="80" height="60" as="geometry" />
        </mxCell>
        <mxCell id="_byEJqEuBEvWaC3ETk2K-42" style="edgeStyle=orthogonalEdgeStyle;rounded=0;orthogonalLoop=1;jettySize=auto;html=1;entryX=0.5;entryY=1;entryDx=0;entryDy=0;" edge="1" parent="_byEJqEuBEvWaC3ETk2K-29" source="_byEJqEuBEvWaC3ETk2K-40" target="_byEJqEuBEvWaC3ETk2K-33">
          <mxGeometry relative="1" as="geometry" />
        </mxCell>
        <mxCell id="_byEJqEuBEvWaC3ETk2K-40" value="WhenMatched" style="rounded=0;whiteSpace=wrap;html=1;" vertex="1" parent="_byEJqEuBEvWaC3ETk2K-29">
          <mxGeometry x="125" y="200" width="120" height="60" as="geometry" />
        </mxCell>
        <mxCell id="_byEJqEuBEvWaC3ETk2K-44" style="edgeStyle=orthogonalEdgeStyle;rounded=0;orthogonalLoop=1;jettySize=auto;html=1;entryX=0.5;entryY=1;entryDx=0;entryDy=0;" edge="1" parent="_byEJqEuBEvWaC3ETk2K-29" source="_byEJqEuBEvWaC3ETk2K-43" target="_byEJqEuBEvWaC3ETk2K-40">
          <mxGeometry relative="1" as="geometry">
            <Array as="points">
              <mxPoint x="300" y="300" />
              <mxPoint x="185" y="300" />
            </Array>
          </mxGeometry>
        </mxCell>
        <mxCell id="_byEJqEuBEvWaC3ETk2K-43" value="Delete" style="rounded=0;whiteSpace=wrap;html=1;" vertex="1" parent="_byEJqEuBEvWaC3ETk2K-29">
          <mxGeometry x="260" y="330" width="80" height="60" as="geometry" />
        </mxCell>
        <mxCell id="_byEJqEuBEvWaC3ETk2K-48" style="edgeStyle=orthogonalEdgeStyle;rounded=0;orthogonalLoop=1;jettySize=auto;html=1;entryX=0.5;entryY=1;entryDx=0;entryDy=0;" edge="1" parent="_byEJqEuBEvWaC3ETk2K-29" source="_byEJqEuBEvWaC3ETk2K-47" target="_byEJqEuBEvWaC3ETk2K-33">
          <mxGeometry relative="1" as="geometry">
            <Array as="points">
              <mxPoint x="90" y="180" />
              <mxPoint x="185" y="180" />
            </Array>
          </mxGeometry>
        </mxCell>
        <mxCell id="_byEJqEuBEvWaC3ETk2K-47" value="Insert" style="rounded=0;whiteSpace=wrap;html=1;" vertex="1" parent="_byEJqEuBEvWaC3ETk2K-29">
          <mxGeometry x="30" y="330" width="120" height="60" as="geometry" />
        </mxCell>
        <mxCell id="_byEJqEuBEvWaC3ETk2K-49" value="Append" style="text;html=1;align=center;verticalAlign=middle;whiteSpace=wrap;rounded=0;" vertex="1" parent="_byEJqEuBEvWaC3ETk2K-29">
          <mxGeometry x="30" y="290" width="60" height="30" as="geometry" />
        </mxCell>
        <mxCell id="_byEJqEuBEvWaC3ETk2K-32" value="Propose 2: SQL Generation" style="swimlane;whiteSpace=wrap;html=1;" vertex="1" parent="1">
          <mxGeometry x="760" y="790" width="360" height="150" as="geometry" />
        </mxCell>
        <mxCell id="_byEJqEuBEvWaC3ETk2K-58" value="" style="swimlane;startSize=0;" vertex="1" parent="_byEJqEuBEvWaC3ETk2K-32">
          <mxGeometry x="10" y="40" width="330" height="90" as="geometry" />
        </mxCell>
        <mxCell id="_byEJqEuBEvWaC3ETk2K-61" value="SQL/hour" style="whiteSpace=wrap;html=1;aspect=fixed;" vertex="1" parent="_byEJqEuBEvWaC3ETk2K-58">
          <mxGeometry x="25" y="12.5" width="65" height="65" as="geometry" />
        </mxCell>
        <mxCell id="_byEJqEuBEvWaC3ETk2K-67" value="SQL/hour" style="whiteSpace=wrap;html=1;aspect=fixed;" vertex="1" parent="_byEJqEuBEvWaC3ETk2K-58">
          <mxGeometry x="100" y="12.5" width="65" height="65" as="geometry" />
        </mxCell>
        <mxCell id="_byEJqEuBEvWaC3ETk2K-68" value="SQL/hour" style="whiteSpace=wrap;html=1;aspect=fixed;" vertex="1" parent="_byEJqEuBEvWaC3ETk2K-58">
          <mxGeometry x="180" y="12.5" width="65" height="65" as="geometry" />
        </mxCell>
        <mxCell id="_byEJqEuBEvWaC3ETk2K-69" value="SQL/hour" style="whiteSpace=wrap;html=1;aspect=fixed;" vertex="1" parent="_byEJqEuBEvWaC3ETk2K-58">
          <mxGeometry x="260" y="12.5" width="65" height="65" as="geometry" />
        </mxCell>
        <mxCell id="_byEJqEuBEvWaC3ETk2K-51" value="Current Implementation" style="swimlane;whiteSpace=wrap;html=1;" vertex="1" parent="1">
          <mxGeometry x="-150" width="1030" height="510" as="geometry">
            <mxRectangle x="-190" y="20" width="170" height="30" as="alternateBounds" />
          </mxGeometry>
        </mxCell>
        <mxCell id="_byEJqEuBEvWaC3ETk2K-53" value="" style="group" vertex="1" connectable="0" parent="_byEJqEuBEvWaC3ETk2K-51">
          <mxGeometry x="10" y="70" width="1010" height="370" as="geometry" />
        </mxCell>
        <mxCell id="_byEJqEuBEvWaC3ETk2K-3" value="" style="edgeStyle=orthogonalEdgeStyle;rounded=0;orthogonalLoop=1;jettySize=auto;html=1;" edge="1" parent="_byEJqEuBEvWaC3ETk2K-53" source="_byEJqEuBEvWaC3ETk2K-1" target="_byEJqEuBEvWaC3ETk2K-2">
          <mxGeometry relative="1" as="geometry" />
        </mxCell>
        <mxCell id="_byEJqEuBEvWaC3ETk2K-1" value="Update" style="rounded=0;whiteSpace=wrap;html=1;" vertex="1" parent="_byEJqEuBEvWaC3ETk2K-53">
          <mxGeometry x="230" y="100" width="120" height="60" as="geometry" />
        </mxCell>
        <mxCell id="_byEJqEuBEvWaC3ETk2K-5" value="" style="edgeStyle=orthogonalEdgeStyle;rounded=0;orthogonalLoop=1;jettySize=auto;html=1;" edge="1" parent="_byEJqEuBEvWaC3ETk2K-53" source="_byEJqEuBEvWaC3ETk2K-2" target="_byEJqEuBEvWaC3ETk2K-4">
          <mxGeometry relative="1" as="geometry" />
        </mxCell>
        <mxCell id="_byEJqEuBEvWaC3ETk2K-2" value="Read delta table" style="rounded=0;whiteSpace=wrap;html=1;" vertex="1" parent="_byEJqEuBEvWaC3ETk2K-53">
          <mxGeometry x="430" y="100" width="120" height="60" as="geometry" />
        </mxCell>
        <mxCell id="_byEJqEuBEvWaC3ETk2K-7" value="" style="edgeStyle=orthogonalEdgeStyle;rounded=0;orthogonalLoop=1;jettySize=auto;html=1;" edge="1" parent="_byEJqEuBEvWaC3ETk2K-53" source="_byEJqEuBEvWaC3ETk2K-4" target="_byEJqEuBEvWaC3ETk2K-6">
          <mxGeometry relative="1" as="geometry" />
        </mxCell>
        <mxCell id="_byEJqEuBEvWaC3ETk2K-4" value="WhenMatchedUpdateAll" style="rounded=0;whiteSpace=wrap;html=1;" vertex="1" parent="_byEJqEuBEvWaC3ETk2K-53">
          <mxGeometry x="630" y="100" width="160" height="60" as="geometry" />
        </mxCell>
        <mxCell id="_byEJqEuBEvWaC3ETk2K-6" value="Update delta table" style="rounded=0;whiteSpace=wrap;html=1;" vertex="1" parent="_byEJqEuBEvWaC3ETk2K-53">
          <mxGeometry x="850" y="220" width="160" height="60" as="geometry" />
        </mxCell>
        <mxCell id="_byEJqEuBEvWaC3ETk2K-10" value="" style="edgeStyle=orthogonalEdgeStyle;rounded=0;orthogonalLoop=1;jettySize=auto;html=1;" edge="1" parent="_byEJqEuBEvWaC3ETk2K-53" source="_byEJqEuBEvWaC3ETk2K-8" target="_byEJqEuBEvWaC3ETk2K-9">
          <mxGeometry relative="1" as="geometry" />
        </mxCell>
        <mxCell id="_byEJqEuBEvWaC3ETk2K-8" value="Delete" style="rounded=0;whiteSpace=wrap;html=1;" vertex="1" parent="_byEJqEuBEvWaC3ETk2K-53">
          <mxGeometry x="230" y="310" width="120" height="60" as="geometry" />
        </mxCell>
        <mxCell id="_byEJqEuBEvWaC3ETk2K-12" value="" style="edgeStyle=orthogonalEdgeStyle;rounded=0;orthogonalLoop=1;jettySize=auto;html=1;" edge="1" parent="_byEJqEuBEvWaC3ETk2K-53" source="_byEJqEuBEvWaC3ETk2K-9" target="_byEJqEuBEvWaC3ETk2K-11">
          <mxGeometry relative="1" as="geometry" />
        </mxCell>
        <mxCell id="_byEJqEuBEvWaC3ETk2K-9" value="Read delta table" style="rounded=0;whiteSpace=wrap;html=1;" vertex="1" parent="_byEJqEuBEvWaC3ETk2K-53">
          <mxGeometry x="430" y="310" width="120" height="60" as="geometry" />
        </mxCell>
        <mxCell id="_byEJqEuBEvWaC3ETk2K-13" style="edgeStyle=orthogonalEdgeStyle;rounded=0;orthogonalLoop=1;jettySize=auto;html=1;entryX=0.5;entryY=1;entryDx=0;entryDy=0;" edge="1" parent="_byEJqEuBEvWaC3ETk2K-53" source="_byEJqEuBEvWaC3ETk2K-11" target="_byEJqEuBEvWaC3ETk2K-6">
          <mxGeometry relative="1" as="geometry" />
        </mxCell>
        <mxCell id="_byEJqEuBEvWaC3ETk2K-11" value="WhenMatchedDelete" style="rounded=0;whiteSpace=wrap;html=1;" vertex="1" parent="_byEJqEuBEvWaC3ETk2K-53">
          <mxGeometry x="630" y="310" width="160" height="60" as="geometry" />
        </mxCell>
        <mxCell id="_byEJqEuBEvWaC3ETk2K-14" value="Upsert&lt;div&gt;on delta table&lt;/div&gt;" style="ellipse;shape=cloud;whiteSpace=wrap;html=1;" vertex="1" parent="_byEJqEuBEvWaC3ETk2K-53">
          <mxGeometry y="170" width="230" height="130" as="geometry" />
        </mxCell>
        <mxCell id="_byEJqEuBEvWaC3ETk2K-27" style="edgeStyle=orthogonalEdgeStyle;rounded=0;orthogonalLoop=1;jettySize=auto;html=1;entryX=0.5;entryY=0;entryDx=0;entryDy=0;" edge="1" parent="_byEJqEuBEvWaC3ETk2K-53" source="_byEJqEuBEvWaC3ETk2K-26" target="_byEJqEuBEvWaC3ETk2K-6">
          <mxGeometry relative="1" as="geometry" />
        </mxCell>
        <mxCell id="_byEJqEuBEvWaC3ETk2K-26" value="Insert" style="rounded=0;whiteSpace=wrap;html=1;" vertex="1" parent="_byEJqEuBEvWaC3ETk2K-53">
          <mxGeometry x="230" width="120" height="60" as="geometry" />
        </mxCell>
        <mxCell id="_byEJqEuBEvWaC3ETk2K-28" value="Append/Create" style="text;html=1;align=center;verticalAlign=middle;whiteSpace=wrap;rounded=0;" vertex="1" parent="_byEJqEuBEvWaC3ETk2K-53">
          <mxGeometry x="360" width="110" height="30" as="geometry" />
        </mxCell>
      </root>
    </mxGraphModel>
  </diagram>
</mxfile>
